# xmcd
#
# Track frame offsets: 
#        150
#        13405
#        26747
#        41215
#        55797
#        68792
#        83305
#        94990
#        108992
#        123072
#        137237
#        150980
#
# Disc length: 2201 seconds
#
# Revision: 2
# Processed by: cddbd v1.5.2PL0 Copyright (c) Steve Scherf et al.
# Submitted via: ExactAudioCopy v0.95b4
#
DISCID=9508970c
DTITLE=Mildred Bailey - American Legends
DYEAR=1996
DGENRE=Vocal Jazz
TTITLE0=Darn That Dream
TTITLE1=I See Your Face Before Me
TTITLE2=Lover Come Back To Me
TTITLE3=A Porter's Love Song To A Chambermaid
TTITLE4=Born To Be Blue
TTITLE5=The Lamp Is Low
TTITLE6=Thanks For The Memory
TTITLE7=Smoke Dreams
TTITLE8=In Love In Vain
TTITLE9=Love's A Necessary Thing
TTITLE10=I'll Close My Eyes
TTITLE11=Me and The Blues
EXTD=
EXTT0=
EXTT1=
EXTT2=
EXTT3=
EXTT4=
EXTT5=
EXTT6=
EXTT7=
EXTT8=
EXTT9=
EXTT10=
EXTT11=
PLAYORDER=
